HIERARCHY
ROOT Hips
{
	OFFSET 0.000000 0.000000 0.000000
	CHANNELS 6 Xposition Yposition Zposition Yrotation Xrotation Zrotation
	JOINT Chest
	{
		OFFSET 0.000000 -0.009281 11.569106
		CHANNELS 3 Yrotation Xrotation Zrotation
		JOINT Chest2
		{
			OFFSET -0.000000 0.016865 9.269641
			CHANNELS 3 Yrotation Xrotation Zrotation
			JOINT Chest3
			{
				OFFSET -0.000000 0.000001 8.374491
				CHANNELS 3 Yrotation Xrotation Zrotation
				JOINT Chest4
				{
					OFFSET -0.000000 0.000001 8.374493
					CHANNELS 3 Yrotation Xrotation Zrotation
					JOINT Neck
					{
						OFFSET -0.000000 0.000002 12.152554
						CHANNELS 3 Yrotation Xrotation Zrotation
						JOINT Head
						{
							OFFSET -0.000000 0.040101 7.802319
							CHANNELS 3 Yrotation Xrotation Zrotation
							End Site
							{
								OFFSET -0.000000 0.020947 14.853096
							}
						}
					}
					JOINT RightCollar
					{
						OFFSET 2.894404 0.000001 6.791374
						CHANNELS 3 Yrotation Xrotation Zrotation
						JOINT RightShoulder
						{
							OFFSET 13.574684 0.000001 0.000000
							CHANNELS 3 Yrotation Xrotation Zrotation
							JOINT RightElbow
							{
								OFFSET 23.923903 0.000002 0.000000
								CHANNELS 3 Yrotation Xrotation Zrotation
								JOINT RightWrist
								{
									OFFSET 19.846718 0.012767 0.000000
									CHANNELS 3 Yrotation Xrotation Zrotation
									End Site
									{
										OFFSET 14.973145 0.000001 0.000000
									}
								}
							}
						}
					}
					JOINT LeftCollar
					{
						OFFSET -2.894404 0.000001 6.791374
						CHANNELS 3 Yrotation Xrotation Zrotation
						JOINT LeftShoulder
						{
							OFFSET -13.574684 -0.000001 0.000000
							CHANNELS 3 Yrotation Xrotation Zrotation
							JOINT LeftElbow
							{
								OFFSET -23.923903 -0.000002 0.000000
								CHANNELS 3 Yrotation Xrotation Zrotation
								JOINT LeftWrist
								{
									OFFSET -19.846718 0.012763 0.000000
									CHANNELS 3 Yrotation Xrotation Zrotation
									End Site
									{
										OFFSET -14.973145 -0.000001 0.000000
									}
								}
							}
						}
					}
				}
			}
		}
	}
	JOINT RightHip
	{
		OFFSET 9.469263 0.004643 0.045487
		CHANNELS 3 Yrotation Xrotation Zrotation
		JOINT RightKnee
		{
			OFFSET 0.000000 0.002661 -40.478676
			CHANNELS 3 Yrotation Xrotation Zrotation
			JOINT RightAnkle
			{
				OFFSET 0.000000 0.049106 -35.224068
				CHANNELS 3 Yrotation Xrotation Zrotation
				JOINT RightToe
				{
					OFFSET -0.000001 12.539529 -6.151390
					CHANNELS 3 Yrotation Xrotation Zrotation
					End Site
					{
						OFFSET -0.000001 5.044994 -1.291870
					}
				}
			}
		}
	}
	JOINT LeftHip
	{
		OFFSET -9.469263 0.004641 0.045487
		CHANNELS 3 Yrotation Xrotation Zrotation
		JOINT LeftKnee
		{
			OFFSET 0.000000 0.002661 -40.478676
			CHANNELS 3 Yrotation Xrotation Zrotation
			JOINT LeftAnkle
			{
				OFFSET 0.000000 0.049106 -35.224068
				CHANNELS 3 Yrotation Xrotation Zrotation
				JOINT LeftToe
				{
					OFFSET -0.000001 12.539529 -6.151390
					CHANNELS 3 Yrotation Xrotation Zrotation
					End Site
					{
						OFFSET -0.000001 5.044994 -1.291870
					}
				}
			}
		}
	}
}
MOTION
Frames: 9
Frame Time: 0.016667
12.177344 5.165475 82.970688 -5.352122 -2.680525 -112.125492 -0.197979 -2.799782 -0.685808 -0.094976 -1.242449 -0.304840 -0.094976 -1.242450 -0.304840 -0.071849 -0.931790 -0.228818 0.189251 -17.305270 -0.972385 0.014631 4.044454 -1.731829 6.187357 -3.159019 4.172943 79.546077 -8.078747 41.916721 4.540027 -24.918805 84.585561 -47.228470 47.387378 41.438420 -10.333938 -3.815041 -6.240080 -71.336408 -7.946336 -43.395716 -20.223592 -26.342627 -72.934748 46.804312 33.567675 -54.445466 0.539732 -10.561451 -2.677416 -0.094389 -0.676712 0.273843 0.769808 5.637774 0.162303 0.007265 -0.033138 0.020759 0.245652 -10.287281 0.727910 0.556442 -0.085799 1.290114 -0.973579 4.487360 -0.964290 -0.015085 -0.005624 -0.018873 
12.177535 5.152728 82.969711 -5.338116 -2.663131 -112.107003 -0.208163 -2.808376 -0.680319 -0.099468 -1.246329 -0.302873 -0.099468 -1.246329 -0.302874 -0.075216 -0.934698 -0.227353 0.182398 -17.357973 -0.978659 0.000460 3.946436 -1.745404 6.221226 -3.172941 4.205171 79.680215 -8.060778 41.751512 4.814610 -25.085444 84.441752 -47.251699 47.468076 41.438628 -10.355425 -3.810009 -6.219832 -71.553977 -8.001525 -43.142077 -20.093865 -26.568056 -73.061693 46.750613 33.635280 -54.819317 0.541219 -10.559801 -2.688215 -0.092056 -0.651617 0.270151 0.759635 5.632840 0.156618 0.007456 -0.032617 0.020389 0.246275 -10.275767 0.716614 0.556925 -0.070485 1.276353 -0.980112 4.476323 -0.955946 -0.014981 -0.004769 -0.018818 
12.175694 5.141057 82.968781 -5.324577 -2.644775 -112.087967 -0.221680 -2.813455 -0.676186 -0.105220 -1.248531 -0.301483 -0.105220 -1.248531 -0.301484 -0.079528 -0.936347 -0.226319 0.181523 -17.407837 -0.982522 -0.001863 3.853801 -1.752482 6.259919 -3.206853 4.235297 79.827781 -8.039994 41.599947 5.152183 -25.289269 84.283838 -47.263164 47.540828 41.442381 -10.379903 -3.827005 -6.202641 -71.804010 -8.024556 -42.914625 -20.008745 -26.823353 -73.155083 46.623390 33.684256 -55.135131 0.540555 -10.552411 -2.697223 -0.087837 -0.635694 0.270102 0.747600 5.630696 0.145946 0.007744 -0.031774 0.019385 0.244849 -10.262360 0.701136 0.558973 -0.055416 1.271218 -0.987272 4.462445 -0.955906 -0.015006 -0.003471 -0.018342 
12.172472 5.130151 82.968391 -5.311407 -2.625318 -112.063221 -0.235086 -2.812962 -0.678366 -0.110850 -1.248165 -0.302795 -0.110850 -1.248165 -0.302797 -0.083754 -0.936069 -0.227312 0.178906 -17.452740 -0.982244 -0.006044 3.770376 -1.752546 6.296117 -3.256464 4.252682 79.972376 -8.015827 41.473182 5.543754 -25.507912 84.104805 -47.227090 47.611541 41.428499 -10.402908 -3.864723 -6.186232 -72.061009 -8.006034 -42.695010 -20.010451 -27.113419 -73.216664 46.473413 33.691301 -55.437029 0.540166 -10.545086 -2.716257 -0.085218 -0.618764 0.262684 0.739164 5.628445 0.147314 0.006881 -0.031705 0.018539 0.245549 -10.245927 0.690167 0.556879 -0.042135 1.253711 -0.992967 4.447272 -0.954490 -0.014487 -0.002261 -0.018133 
12.169535 5.119354 82.968246 -5.296202 -2.607009 -112.037574 -0.244786 -2.817333 -0.689375 -0.114908 -1.249684 -0.307709 -0.114908 -1.249684 -0.307708 -0.086807 -0.937206 -0.231006 0.170025 -17.483514 -0.973425 -0.019040 3.713200 -1.739076 6.331570 -3.297606 4.274443 80.095532 -7.993089 41.363240 5.867785 -25.739006 83.940306 -47.166841 47.682865 41.435237 -10.427115 -3.888060 -6.166380 -72.293837 -7.982323 -42.487065 -19.990417 -27.367325 -73.288661 46.385939 33.640372 -55.718207 0.544639 -10.538923 -2.738007 -0.088247 -0.596180 0.252496 0.734427 5.622847 0.150573 0.005850 -0.031190 0.017919 0.245600 -10.227512 0.685459 0.559623 -0.029822 1.226634 -1.000653 4.431738 -0.951321 -0.014075 -0.000539 -0.017910 
12.166637 5.109805 82.968086 -5.282950 -2.590747 -112.014850 -0.251293 -2.833262 -0.703369 -0.117571 -1.256600 -0.314165 -0.117571 -1.256600 -0.314162 -0.088821 -0.942390 -0.235854 0.156301 -17.497500 -0.960786 -0.039884 3.687161 -1.720324 6.360632 -3.316139 4.292193 80.177207 -7.980326 41.273293 6.098408 -25.956174 83.799844 -47.080740 47.749234 41.461338 -10.448840 -3.886057 -6.145570 -72.496509 -7.970982 -42.289106 -19.861970 -27.564559 -73.414521 46.314468 33.581609 -55.917000 0.546914 -10.534503 -2.760488 -0.088567 -0.574186 0.252043 0.729362 5.616541 0.149032 0.004734 -0.030319 0.017005 0.247818 -10.214080 0.693286 0.559617 -0.013716 1.192304 -1.006709 4.415769 -0.960309 -0.014228 0.000150 -0.017653 
12.162917 5.099266 82.968231 -5.268131 -2.576015 -111.999331 -0.254949 -2.850258 -0.714752 -0.119309 -1.264301 -0.319605 -0.119310 -1.264301 -0.319606 -0.090140 -0.948164 -0.239943 0.144048 -17.505831 -0.948921 -0.058347 3.671635 -1.702549 6.388827 -3.336837 4.314501 80.210217 -7.963341 41.199179 6.257465 -26.161964 83.686510 -46.921207 47.794942 41.521543 -10.473148 -3.889092 -6.121489 -72.665030 -7.968543 -42.121486 -19.671882 -27.742620 -73.561595 46.219101 33.581342 -56.025436 0.550645 -10.526839 -2.774443 -0.087894 -0.554250 0.248241 0.723882 5.609299 0.150441 0.002761 -0.028856 0.016200 0.251047 -10.200992 0.705212 0.557258 0.005286 1.165797 -1.011422 4.398365 -0.958439 -0.013931 0.000581 -0.016352 
12.158296 5.089353 82.968292 -5.252476 -2.560729 -111.985528 -0.262669 -2.864460 -0.723660 -0.122745 -1.270795 -0.323589 -0.122745 -1.270795 -0.323592 -0.092728 -0.953032 -0.242935 0.138030 -17.513315 -0.939354 -0.066091 3.657751 -1.686892 6.415769 -3.357617 4.326002 80.217778 -7.948328 41.125150 6.375764 -26.374036 83.591755 -46.785385 47.843279 41.589903 -10.494644 -3.893455 -6.095817 -72.808970 -7.965671 -41.991224 -19.566084 -27.913151 -73.664485 46.150072 33.582387 -56.106664 0.554012 -10.519483 -2.790009 -0.088017 -0.530192 0.239730 0.719865 5.600104 0.156863 0.001168 -0.028263 0.016093 0.253900 -10.186165 0.715839 0.557489 0.022214 1.143801 -1.018981 4.382892 -0.968153 -0.013716 0.000453 -0.016144 
12.152384 5.079682 82.967964 -5.233372 -2.545014 -111.972694 -0.273646 -2.871779 -0.731644 -0.127673 -1.274212 -0.326883 -0.127673 -1.274212 -0.326877 -0.096432 -0.955591 -0.245412 0.136643 -17.522973 -0.931790 -0.065951 3.639863 -1.673336 6.441292 -3.371308 4.330046 80.221863 -7.943419 41.029704 6.483097 -26.569899 83.514007 -46.622448 47.870699 41.702024 -10.516347 -3.902421 -6.069453 -72.925882 -7.962352 -41.870999 -19.572756 -28.085374 -73.716053 46.082347 33.586984 -56.195675 0.557871 -10.507523 -2.803366 -0.087559 -0.506527 0.228760 0.715945 5.591545 0.165725 -0.000453 -0.028967 0.015579 0.255135 -10.165099 0.725608 0.559819 0.036307 1.118488 -1.025369 4.369118 -0.966014 -0.013881 -0.000887 -0.015214 
